<svg width="1501" height="1777" viewBox="0 0 1501 1777" fill="none" xmlns="http://www.w3.org/2000/svg">
<path d="M38.9998 483.499C37 386 202 227 404.5 329.501C505.687 380.719 742.5 261 687 193C650.095 147.783 607.5 161 594 168C466.828 233.941 475.5 47.9999 475.5 43.9999" stroke="#1B706C" stroke-width="18" stroke-dasharray="39 39"/>
<path d="M142 581L165.095 580.217C259.897 577.003 348.816 626.07 396.642 707.987L416.5 742" stroke="#1B706C" stroke-width="18" stroke-dasharray="36 36"/>
<path d="M486 981L513.747 1038.09C539.419 1090.91 592.271 1125.14 650.973 1126.95L733.5 1129.5" stroke="#1B706C" stroke-width="18" stroke-dasharray="36 36"/>
<path d="M970 1185.5L1175.5 1320.5" stroke="#1B706C" stroke-width="18" stroke-dasharray="36 36"/>
<path d="M1343 1516L1456.5 1577.5C1541.5 1631.5 1445.5 1734 1445.5 1776.5" stroke="#1B706C" stroke-width="18" stroke-dasharray="36 36"/>
</svg>
