<svg width="927.000000" height="270.000000" viewBox="0 0 927 270" fill="#FFFFFF" xmlns="http://www.w3.org/2000/svg" xmlns:xlink="http://www.w3.org/1999/xlink">
	<desc>
			Created with Pixso.
	</desc>
	<defs/>
	<path id="TateBurger" d="M698.58 166.32Q705.22 151.18 706.58 130.77Q700.19 132 691.69 133.41Q683.2 134.78 675.58 135.8Q666.59 136.98 657.22 138.2L653.41 157.97L674.8 154.8Q674.61 160.29 672.55 164.95Q672.43 165.22 672.31 165.49Q670.01 170.37 666.59 174.09Q663.51 177.44 659.7 179.4Q659.29 179.61 658.88 179.8Q654.58 181.8 650.58 181.8Q648.45 181.8 646.6 181.08Q643.45 179.85 641.11 176.53Q637.4 171.2 637.4 158.8Q637.78 145.81 641.4 132.43Q645.01 119.01 650.19 107.83Q655.41 96.59 661.37 89.51Q667.38 82.39 672.4 82.39Q673.38 82.39 674.3 82.61Q676.97 83.26 679.19 85.8Q682.22 89.17 683.98 97.18L711.42 92Q711.42 84.97 709.71 78.67Q708.11 72.77 704.67 68.29Q704.43 67.99 704.19 67.69Q703.75 67.15 703.28 66.63Q699.7 62.68 694.48 60.22Q688.62 57.39 680.61 57.39Q669.38 57.39 656.49 63.59Q643.6 69.79 632.27 82.58Q620.99 95.37 613.57 114.61Q606.19 133.8 606.19 159.58Q606.19 172.82 608.98 182.63Q611.81 192.4 616.69 198.89Q621.05 204.68 626.84 207.83Q627.54 208.21 628.26 208.56Q632.08 210.38 636.1 211.17Q639.18 211.78 642.38 211.78Q651.99 211.78 662.69 206.8Q673.38 201.82 682.66 191.61Q691.98 181.41 698.58 166.32ZM174.99 204.8Q181 203.77 185.98 202.99Q191.99 202.41 197.99 201.38Q199.21 170.37 200.19 142.79Q200.77 131.02 201.36 118.81Q202 106.6 202.58 95.42Q203.22 84.19 203.9 74.72Q204.58 65.2 205.22 58.8Q191.79 61.19 177.68 62.61Q163.62 63.98 149.99 65Q147.6 73.99 144.38 84.83Q141.2 95.62 137.69 107.34Q134.17 119.01 130.66 130.82Q127.19 142.59 124.02 153.38Q116.2 179.21 108.2 205.77Q114.4 204.99 120.79 204.21Q126.02 203.58 131.98 202.89Q137.98 202.21 142.38 201.58L150.38 172.82L167.82 172.82Q167.38 176.82 166.89 182.43Q166.4 188 165.81 193.62Q164.98 200.01 164.2 206.6Q168.99 205.77 174.99 204.8ZM428.12 168.24Q429.98 162.84 429.98 156.8Q429.98 150.79 428.46 146.01Q427 141.17 424.61 137.71Q422.21 134.19 419.38 131.6Q416.6 129.02 414.01 127.6Q419.19 125.6 424.17 121.69Q429.2 117.79 433.1 112.42Q437.01 107 439.5 100.4Q441.99 93.81 441.99 86.19Q441.99 78.19 438.86 73.01Q435.99 68.14 431.81 65.05Q431.51 64.83 431.2 64.61Q429.54 63.45 427.74 62.55Q424.58 60.97 420.99 60.22Q415.38 59 410.4 59Q398.38 59 387.15 60.71Q375.97 62.41 365.57 64.61Q360.4 100.6 354.68 136.1Q349.02 171.6 339.4 206.6Q345.8 207.78 353.22 207.78Q361.37 207.78 370.26 206.31Q378.31 204.95 386 202.48Q386.85 202.2 387.69 201.92Q396.19 198.99 403.9 194.69Q411.62 190.39 417.38 184.73Q422.7 179.5 425.97 173.2Q426.27 172.62 426.56 172.03Q427.46 170.18 428.12 168.24ZM299.18 65L273.01 207.19L337.61 197.18L339.61 174.38L310.41 179.02L317.2 142.2Q323.4 142 328.57 141.81Q333.21 141.61 337.7 141.52Q342.2 141.42 344.2 141.17Q345.17 135.61 345.86 130.24Q346.59 124.82 347.37 119.2Q345.17 119.4 340.58 119.4Q336 119.4 331.6 119.59Q326.18 119.79 319.98 120.18L327.01 84.39L334.48 84.39Q338.78 84.39 342.98 84.29Q347.18 84.19 350.89 84.09Q354.6 84 356.6 83.8Q357.19 80.58 358.07 76.48Q358.99 72.38 360.02 68.62Q361 63.98 362.41 59.58L299.18 65ZM788.61 59.58L725.38 65L699.21 207.19L763.81 197.18L765.81 174.38L736.61 179.02L743.4 142.2Q749.6 142 754.77 141.81Q759.41 141.61 763.9 141.52Q768.4 141.42 770.4 141.17Q771.37 135.61 772.06 130.24Q772.79 124.82 773.57 119.2Q771.37 119.4 766.78 119.4Q762.2 119.4 757.8 119.59Q752.38 119.79 746.18 120.18L753.21 84.39L760.68 84.39Q764.98 84.39 769.18 84.29Q773.38 84.19 777.09 84.09Q780.8 84 782.8 83.8Q783.39 80.58 784.27 76.48Q785.19 72.38 786.22 68.62Q787.2 63.98 788.61 59.58ZM520.18 155.19Q515.2 180.58 509.78 207.19L542.2 198.79Q544.01 189.17 545.81 179.8Q547.18 171.79 548.89 163.2Q550.6 154.6 551.82 148.21L554.4 147.38Q554.6 149.57 555.38 153.09Q556.21 156.6 557.38 161Q558.6 165.39 559.97 170.33Q561.39 175.21 562.8 179.8Q565.98 190.98 569.98 203.77L600.99 192.98Q596.79 182.97 592.78 173.01Q589.17 164.42 585.07 154.89Q581.02 145.37 577.4 137.42Q584.39 133.8 590.49 128.09Q594.01 124.8 597.06 121.11Q599.3 118.41 601.28 115.49Q605 110.09 607.51 104.17Q608.2 102.55 608.8 100.89Q610.89 95.1 611.41 89.17Q611.58 87.2 611.58 85.22Q611.58 79.8 610.36 75.4Q609.59 72.5 608.05 70.09Q607.25 68.85 606.26 67.74Q603.38 64.42 598.25 62.61Q593.18 60.8 585.41 60.8Q572.37 60.8 559.19 62.51Q546.01 64.17 534.58 67.79Q533.6 76.58 531.9 87.32Q530.19 98.01 528.28 109.53Q526.38 121.01 524.18 132.73Q521.98 144.4 520.18 155.19ZM776.98 155.19Q772 180.58 766.58 207.19L799 198.79Q800.81 189.17 802.61 179.8Q803.98 171.79 805.69 163.2Q807.4 154.6 808.62 148.21L811.21 147.38Q811.4 149.57 812.18 153.09Q813.01 156.6 814.18 161Q815.4 165.39 816.77 170.33Q818.19 175.21 819.6 179.8Q822.78 190.98 826.78 203.77L857.79 192.98Q853.59 182.97 849.58 173.01Q845.97 164.42 841.87 154.89Q837.82 145.37 834.2 137.42Q841.19 133.8 847.29 128.09Q850.81 124.8 853.86 121.11Q856.1 118.41 858.08 115.49Q861.8 110.09 864.31 104.17Q865 102.55 865.6 100.89Q867.69 95.1 868.21 89.17Q868.38 87.2 868.38 85.22Q868.38 79.8 867.16 75.4Q866.39 72.5 864.85 70.09Q864.05 68.85 863.06 67.74Q860.18 64.42 855.05 62.61Q849.98 60.8 842.21 60.8Q829.17 60.8 815.99 62.51Q802.81 64.17 791.38 67.79Q790.4 76.58 788.7 87.32Q786.99 98.01 785.08 109.53Q783.18 121.01 780.98 132.73Q778.78 144.4 776.98 155.19ZM66.8 163.78Q62.6 185.22 58.01 207.19L94 201.58Q96.78 180.38 100.01 160.61Q101.37 152.21 102.79 143.03Q104.2 133.8 105.67 124.92Q107.18 115.98 108.79 107.68Q110.41 99.38 111.77 92.59Q112.37 92.49 112.97 92.38Q116.82 91.74 120.71 91.32Q121.77 91.19 122.83 91.03Q126.24 90.51 129.6 89.61Q130.38 86.19 131.25 81.41Q132.18 76.58 133.21 71.99L135.41 61.19Q127.59 62.22 119.49 62.9Q111.38 63.59 101.86 64.12Q92.39 64.61 82.18 64.61Q77.01 64.61 71.78 64.42Q66.61 64.17 61.38 63.78Q61.19 69.01 60.99 73.6Q60.8 77.8 60.8 82Q60.8 86.19 60.6 89.42Q63.76 90.36 66.97 90.56Q68.42 90.65 69.88 90.59Q74.61 90.39 79.2 90.98Q78.18 98.4 76.86 107.29Q75.59 116.18 73.88 125.7Q72.17 135.22 70.37 145.03Q68.61 154.8 66.8 163.78ZM225.8 163.78Q221.6 185.22 217.01 207.19L253 201.58Q255.78 180.38 259.01 160.61Q260.37 152.21 261.79 143.03Q263.2 133.8 264.67 124.92Q266.18 115.98 267.79 107.68Q269.41 99.38 270.77 92.59Q271.37 92.49 271.97 92.38Q275.82 91.74 279.71 91.32Q280.77 91.19 281.83 91.03Q285.24 90.51 288.6 89.61Q289.38 86.19 290.26 81.41Q291.18 76.58 292.21 71.99L294.41 61.19Q286.59 62.22 278.49 62.9Q270.38 63.59 260.86 64.12Q251.39 64.61 241.18 64.61Q236.01 64.61 230.78 64.42Q225.61 64.17 220.38 63.78Q220.19 69.01 219.99 73.6Q219.8 77.8 219.8 82Q219.8 86.19 219.6 89.42Q222.76 90.36 225.97 90.56Q227.42 90.65 228.88 90.59Q233.61 90.39 238.2 90.98Q237.18 98.4 235.86 107.29Q234.59 116.18 232.88 125.7Q231.17 135.22 229.37 145.03Q227.61 154.8 225.8 163.78ZM500.49 187.42Q505.62 179.41 508.4 167.98Q510.6 158.41 512.89 146.94Q515.19 135.41 517.58 123.5Q520.02 111.59 521.88 100.6Q523.78 89.61 525.39 81.02Q527 72.38 527.98 67.2L529 61.98L498.58 63.98Q495.41 82.78 491.99 100.4Q490.58 107.97 489.06 115.98Q487.6 123.99 486.08 131.7Q484.62 139.42 483.11 146.5Q481.59 153.58 480.37 159.39Q479.79 161.59 479.1 165.49Q478.42 169.4 476.9 173.21Q475.39 177.02 473.19 179.7Q472.05 181.1 470.58 181.77Q469.22 182.39 467.58 182.39Q466.69 182.39 465.9 182.09Q464.59 181.6 463.57 180.29Q463.49 180.18 463.42 180.07Q462.01 178.02 462.01 175.01Q462.01 171.01 462.89 166.13Q463.82 161.19 464.5 158.02Q465.19 154.8 466.26 149.72Q467.38 144.59 468.9 137.61Q470.41 130.58 472.07 122.18Q473.78 113.78 475.59 105.38Q479.59 85.8 484.81 61.58Q478.81 62.22 472.61 62.81Q467.58 63.2 461.77 63.83Q456.01 64.42 451.81 64.81Q451.42 66.42 450 73.3Q448.58 80.19 446.68 90.59Q444.78 100.99 442.38 113.68Q439.99 126.38 437.99 138.98Q435.99 151.58 434.18 163.2Q432.37 174.82 431.59 182.97Q431.4 183.8 431.4 184.63L431.4 186.19Q431.4 192.4 433.89 196.99Q436.2 201.26 439.66 204.17Q439.92 204.39 440.19 204.6Q440.98 205.22 441.81 205.78Q444.99 207.9 448.78 209.1Q453.61 210.61 458.2 210.61Q458.7 210.61 459.2 210.6Q466.51 210.45 473.78 208.17Q474.31 208 474.84 207.83Q482.06 205.42 488.48 200.6Q495.41 195.37 500.49 187.42ZM158.1 152.7Q156 152.8 155.22 152.8L167.57 102.6L172.21 85.41L175.19 85.22L174.02 102.6Q172.8 114.42 172.01 124.57Q171.58 128.77 171.18 133.22Q170.79 137.61 170.5 141.32Q170.21 144.98 169.87 147.91Q169.57 150.79 169.57 152.02Q168.79 152.21 166.79 152.31Q164.79 152.41 162.49 152.5Q160.2 152.6 158.1 152.7ZM392.28 92.83Q392.82 89.81 393.21 87.61L395.21 87.61Q397.6 87.61 400.68 88.1Q402.8 88.43 404.82 89.1Q405.76 89.42 406.69 89.81Q409.62 90.98 411.37 92.88Q411.82 93.36 412.16 93.9Q413.18 95.54 413.18 97.82Q413.18 98.31 413.09 98.78Q412.75 100.62 411.08 102.21Q408.98 104.21 405.46 105.92Q402 107.58 397.6 109Q393.21 110.41 388.81 111.19Q389.2 108.8 389.89 105.63Q390.57 102.41 391.16 99.13Q391.79 95.81 392.28 92.83ZM566.08 117.2Q560.61 119.98 556.8 120.37L563.19 88.59Q565 88.59 567.3 88.49Q569.59 88.39 571.79 88.39Q575.01 88.39 577.99 88.59Q581.02 88.78 583.51 89.51Q586 90.2 587.36 91.52Q587.77 91.88 588.06 92.33Q588.78 93.42 588.78 94.98Q588.78 98.21 585.17 102.41Q581.6 106.6 576.57 110.51Q571.59 114.42 566.08 117.2ZM822.88 117.2Q817.41 119.98 813.6 120.37L819.99 88.59Q821.8 88.59 824.1 88.49Q826.39 88.39 828.59 88.39Q831.81 88.39 834.79 88.59Q837.82 88.78 840.31 89.51Q842.8 90.2 844.16 91.52Q844.57 91.88 844.86 92.33Q845.58 93.42 845.58 94.98Q845.58 98.21 841.97 102.41Q838.4 106.6 833.37 110.51Q828.39 114.42 822.88 117.2ZM382.66 144.5Q383.39 140.78 384.18 136Q385.01 135.8 385.69 135.8L387.4 135.8Q390.38 135.8 393.79 136.49Q397.21 137.17 400.09 138.78Q402.96 140.38 404.86 142.76L404.88 142.79Q405.14 143.12 405.37 143.47Q406.78 145.68 406.78 148.79Q406.78 152 405.52 154.61Q404.83 156.04 403.76 157.29Q403.19 157.96 402.57 158.57Q399.94 161.2 396.38 162.9Q394.57 163.77 392.69 164.45Q390.01 165.43 387.2 166.03Q382.42 167.01 378.61 167.4Q379.39 162.42 380.07 158.7Q380.81 154.99 381.39 151.62Q381.98 148.21 382.66 144.5Z" fill="#FFFFFF" fill-opacity="1.000000" fill-rule="evenodd"/>
	<path id="TateBurger" d="M58.01 207.19Q62.6 185.22 66.8 163.78Q68.61 154.8 70.37 145.03Q72.17 135.22 73.88 125.7Q75.59 116.18 76.86 107.29Q78.18 98.4 79.2 90.98Q74.61 90.39 69.88 90.59Q65.19 90.78 60.6 89.42Q60.8 86.19 60.8 82Q60.8 77.8 60.99 73.6Q61.19 69.01 61.38 63.78Q66.61 64.17 71.78 64.42Q77.01 64.61 82.18 64.61Q92.39 64.61 101.86 64.12Q111.38 63.59 119.49 62.9Q127.59 62.22 135.41 61.19L133.21 71.99Q132.18 76.58 131.25 81.41Q130.38 86.19 129.6 89.61Q125.2 90.78 120.71 91.32Q116.22 91.81 111.77 92.59Q110.41 99.38 108.79 107.68Q107.18 115.98 105.67 124.92Q104.2 133.8 102.79 143.03Q101.37 152.21 100.01 160.61Q96.78 180.38 94 201.58L58.01 207.19ZM185.98 202.99Q181 203.77 174.99 204.8Q168.99 205.77 164.2 206.6Q164.98 200.01 165.81 193.62Q166.4 188 166.89 182.43Q167.38 176.82 167.82 172.82L150.38 172.82L142.38 201.58Q137.98 202.21 131.98 202.89Q126.02 203.58 120.79 204.21Q114.4 204.99 108.2 205.77Q116.2 179.21 124.02 153.38Q127.19 142.59 130.66 130.82Q134.17 119.01 137.69 107.34Q141.2 95.62 144.38 84.83Q147.6 73.99 149.99 65Q163.62 63.98 177.68 62.61Q191.79 61.19 205.22 58.8Q204.58 65.2 203.9 74.72Q203.22 84.19 202.58 95.42Q202 106.6 201.36 118.81Q200.77 131.02 200.19 142.79Q199.21 170.37 197.99 201.38Q191.99 202.41 185.98 202.99ZM155.22 152.8Q156 152.8 158.1 152.7Q160.2 152.6 162.49 152.5Q164.79 152.41 166.79 152.31Q168.79 152.21 169.57 152.02Q169.57 150.79 169.87 147.91Q170.21 144.98 170.5 141.32Q170.79 137.61 171.18 133.22Q171.58 128.77 172.01 124.57Q172.8 114.42 174.02 102.6L175.19 85.22L172.21 85.41L167.57 102.6L155.22 152.8ZM217.01 207.19Q221.6 185.22 225.8 163.78Q227.61 154.8 229.37 145.03Q231.17 135.22 232.88 125.7Q234.59 116.18 235.86 107.29Q237.18 98.4 238.2 90.98Q233.61 90.39 228.88 90.59Q224.19 90.78 219.6 89.42Q219.8 86.19 219.8 82Q219.8 77.8 219.99 73.6Q220.19 69.01 220.38 63.78Q225.61 64.17 230.78 64.42Q236.01 64.61 241.18 64.61Q251.39 64.61 260.86 64.12Q270.38 63.59 278.49 62.9Q286.59 62.22 294.41 61.19L292.21 71.99Q291.18 76.58 290.26 81.41Q289.38 86.19 288.6 89.61Q284.2 90.78 279.71 91.32Q275.22 91.81 270.77 92.59Q269.41 99.38 267.79 107.68Q266.18 115.98 264.67 124.92Q263.2 133.8 261.79 143.03Q260.37 152.21 259.01 160.61Q255.78 180.38 253 201.58L217.01 207.19ZM273.01 207.19L299.18 65L362.41 59.58Q361 63.98 360.02 68.62Q358.99 72.38 358.07 76.48Q357.19 80.58 356.6 83.8Q354.6 84 350.89 84.09Q347.18 84.19 342.98 84.29Q338.78 84.39 334.48 84.39Q330.18 84.39 327.01 84.39L319.98 120.18Q326.18 119.79 331.6 119.59Q336 119.4 340.58 119.4Q345.17 119.4 347.37 119.2Q346.59 124.82 345.86 130.24Q345.17 135.61 344.2 141.17Q342.2 141.42 337.7 141.52Q333.21 141.61 328.57 141.81Q323.4 142 317.2 142.2L310.41 179.02L339.61 174.38L337.61 197.18L273.01 207.19ZM429.98 156.8Q429.98 165 426.56 172.03Q423.19 179.02 417.38 184.73Q411.62 190.39 403.9 194.69Q396.19 198.99 387.69 201.92Q379.2 204.8 370.26 206.31Q361.37 207.78 353.22 207.78Q345.8 207.78 339.4 206.6Q349.02 171.6 354.68 136.1Q360.4 100.6 365.57 64.61Q375.97 62.41 387.15 60.71Q398.38 59 410.4 59Q415.38 59 420.99 60.22Q426.61 61.39 431.2 64.61Q435.79 67.79 438.86 73.01Q441.99 78.19 441.99 86.19Q441.99 93.81 439.5 100.4Q437.01 107 433.1 112.42Q429.2 117.79 424.17 121.69Q419.19 125.6 414.01 127.6Q416.6 129.02 419.38 131.6Q422.21 134.19 424.61 137.71Q427 141.17 428.46 146.01Q429.98 150.79 429.98 156.8ZM384.18 136Q383.39 140.78 382.66 144.5Q381.98 148.21 381.39 151.62Q380.81 154.99 380.07 158.7Q379.39 162.42 378.61 167.4Q382.42 167.01 387.2 166.03Q391.99 165 396.38 162.9Q400.78 160.8 403.76 157.29Q406.78 153.77 406.78 148.79Q406.78 145.18 404.88 142.79Q402.97 140.39 400.09 138.78Q397.21 137.17 393.79 136.49Q390.38 135.8 387.4 135.8Q386.37 135.8 385.69 135.8Q385.01 135.8 384.18 136ZM393.21 87.61Q392.82 89.81 392.28 92.83Q391.79 95.81 391.16 99.13Q390.57 102.41 389.89 105.63Q389.2 108.8 388.81 111.19Q393.21 110.41 397.6 109Q402 107.58 405.46 105.92Q408.98 104.21 411.08 102.21Q413.18 100.21 413.18 97.82Q413.18 94.79 411.37 92.88Q409.62 90.98 406.69 89.81Q403.8 88.59 400.68 88.1Q397.6 87.61 395.21 87.61L393.21 87.61ZM508.4 167.98Q505.62 179.41 500.49 187.42Q495.41 195.37 488.48 200.6Q481.59 205.77 473.78 208.17Q466.02 210.61 458.2 210.61Q453.61 210.61 448.78 209.1Q443.99 207.58 440.19 204.6Q436.38 201.58 433.89 196.99Q431.4 192.4 431.4 186.19Q431.4 185.41 431.4 184.63Q431.4 183.8 431.59 182.97Q432.37 174.82 434.18 163.2Q435.99 151.58 437.99 138.98Q439.99 126.38 442.38 113.68Q444.78 100.99 446.68 90.59Q448.58 80.19 450 73.3Q451.42 66.42 451.81 64.81Q456.01 64.42 461.77 63.83Q467.58 63.2 472.61 62.81Q478.81 62.22 484.81 61.58Q479.59 85.8 475.59 105.38Q473.78 113.78 472.07 122.18Q470.41 130.58 468.9 137.61Q467.38 144.59 466.26 149.72Q465.19 154.8 464.5 158.02Q463.82 161.19 462.89 166.13Q462.01 171.01 462.01 175.01Q462.01 178.19 463.57 180.29Q465.19 182.39 467.58 182.39Q471 182.39 473.19 179.7Q475.39 177.02 476.9 173.21Q478.42 169.4 479.1 165.49Q479.79 161.59 480.37 159.39Q481.59 153.58 483.11 146.5Q484.62 139.42 486.08 131.7Q487.6 123.99 489.06 115.98Q490.58 107.97 491.99 100.4Q495.41 82.78 498.58 63.98L529 61.98Q529 61.98 527.98 67.2Q527 72.38 525.39 81.02Q523.78 89.61 521.88 100.6Q520.02 111.59 517.58 123.5Q515.19 135.41 512.89 146.94Q510.6 158.41 508.4 167.98ZM509.78 207.19Q515.2 180.58 520.18 155.19Q521.98 144.4 524.18 132.73Q526.38 121.01 528.28 109.53Q530.19 98.01 531.9 87.32Q533.6 76.58 534.58 67.79Q546.01 64.17 559.19 62.51Q572.37 60.8 585.41 60.8Q593.18 60.8 598.25 62.61Q603.38 64.42 606.26 67.74Q609.19 71.01 610.36 75.4Q611.58 79.8 611.58 85.22Q611.58 93.18 608.8 100.89Q606.02 108.61 601.28 115.49Q596.59 122.38 590.49 128.09Q584.39 133.8 577.4 137.42Q581.02 145.37 585.07 154.89Q589.17 164.42 592.78 173.01Q596.79 182.97 600.99 192.98L569.98 203.77Q565.98 190.98 562.8 179.8Q561.39 175.21 559.97 170.33Q558.6 165.39 557.38 161Q556.21 156.6 555.38 153.09Q554.6 149.57 554.4 147.38L551.82 148.21Q550.6 154.6 548.89 163.2Q547.18 171.79 545.81 179.8Q544.01 189.17 542.2 198.79L509.78 207.19ZM556.8 120.37Q560.61 119.98 566.08 117.2Q571.59 114.42 576.57 110.51Q581.6 106.6 585.17 102.41Q588.78 98.21 588.78 94.98Q588.78 92.79 587.36 91.52Q586 90.2 583.51 89.51Q581.02 88.78 577.99 88.59Q575.01 88.39 571.79 88.39Q569.59 88.39 567.3 88.49Q565 88.59 563.19 88.59L556.8 120.37ZM706.58 130.77Q705.22 151.18 698.58 166.32Q691.98 181.41 682.66 191.61Q673.38 201.82 662.69 206.8Q651.99 211.78 642.38 211.78Q635 211.78 628.26 208.56Q621.57 205.38 616.69 198.89Q611.81 192.4 608.98 182.63Q606.19 172.82 606.19 159.58Q606.19 133.8 613.57 114.61Q620.99 95.37 632.27 82.58Q643.6 69.79 656.49 63.59Q669.38 57.39 680.61 57.39Q688.62 57.39 694.48 60.22Q700.38 63 704.19 67.69Q708 72.38 709.71 78.67Q711.42 84.97 711.42 92L683.98 97.18Q682.22 89.17 679.19 85.8Q676.21 82.39 672.4 82.39Q667.38 82.39 661.37 89.51Q655.41 96.59 650.19 107.83Q645.01 119.01 641.4 132.43Q637.78 145.81 637.4 158.8Q637.4 171.2 641.11 176.53Q644.82 181.8 650.58 181.8Q654.58 181.8 658.88 179.8Q663.18 177.8 666.59 174.09Q670.01 170.37 672.31 165.49Q674.6 160.61 674.8 154.8L653.41 157.97L657.22 138.2Q666.59 136.98 675.58 135.8Q683.2 134.78 691.69 133.41Q700.19 132 706.58 130.77ZM699.21 207.19L725.38 65L788.61 59.58Q787.2 63.98 786.22 68.62Q785.19 72.38 784.27 76.48Q783.39 80.58 782.8 83.8Q780.8 84 777.09 84.09Q773.38 84.19 769.18 84.29Q764.98 84.39 760.68 84.39Q756.38 84.39 753.21 84.39L746.18 120.18Q752.38 119.79 757.8 119.59Q762.2 119.4 766.78 119.4Q771.37 119.4 773.57 119.2Q772.79 124.82 772.06 130.24Q771.37 135.61 770.4 141.17Q768.4 141.42 763.9 141.52Q759.41 141.61 754.77 141.81Q749.6 142 743.4 142.2L736.61 179.02L765.81 174.38L763.81 197.18L699.21 207.19ZM766.58 207.19Q772 180.58 776.98 155.19Q778.78 144.4 780.98 132.73Q783.18 121.01 785.08 109.53Q786.99 98.01 788.7 87.32Q790.4 76.58 791.38 67.79Q802.81 64.17 815.99 62.51Q829.17 60.8 842.21 60.8Q849.98 60.8 855.05 62.61Q860.18 64.42 863.06 67.74Q865.99 71.01 867.16 75.4Q868.38 79.8 868.38 85.22Q868.38 93.18 865.6 100.89Q862.82 108.61 858.08 115.49Q853.39 122.38 847.29 128.09Q841.19 133.8 834.2 137.42Q837.82 145.37 841.87 154.89Q845.97 164.42 849.58 173.01Q853.59 182.97 857.79 192.98L826.78 203.77Q822.78 190.98 819.6 179.8Q818.19 175.21 816.77 170.33Q815.4 165.39 814.18 161Q813.01 156.6 812.18 153.09Q811.4 149.57 811.21 147.38L808.62 148.21Q807.4 154.6 805.69 163.2Q803.98 171.79 802.61 179.8Q800.81 189.17 799 198.79L766.58 207.19ZM813.6 120.37Q817.41 119.98 822.88 117.2Q828.39 114.42 833.37 110.51Q838.4 106.6 841.97 102.41Q845.58 98.21 845.58 94.98Q845.58 92.79 844.16 91.52Q842.8 90.2 840.31 89.51Q837.82 88.78 834.79 88.59Q831.81 88.39 828.59 88.39Q826.39 88.39 824.1 88.49Q821.8 88.59 819.99 88.59L813.6 120.37Z" stroke="#1B706C" stroke-opacity="1.000000" stroke-width="58.059731"/>
</svg>
