<svg width="50.000000" height="50.000000" viewBox="0 0 50 50" fill="none" xmlns="http://www.w3.org/2000/svg" xmlns:xlink="http://www.w3.org/1999/xlink">
	<desc>
			Created with Pixso.
	</desc>
	<defs>
		<clipPath id="clip3_1218">
			<rect rx="-0.312500" width="27.945000" height="27.945000" transform="translate(10.312500 10.312500)" fill="white" fill-opacity="0"/>
		</clipPath>
		<clipPath id="clip3_1210">
			<rect rx="24.500000" width="49.000000" height="49.000000" transform="translate(0.500000 0.500000)" fill="white" fill-opacity="0"/>
		</clipPath>
	</defs>
	<rect rx="24.500000" width="49.000000" height="49.000000" transform="translate(0.500000 0.500000)" fill="#E4E4E4" fill-opacity="1.000000"/>
	<g clip-path="url(#clip3_1210)">
		<rect rx="-0.312500" width="27.945000" height="27.945000" transform="translate(10.312500 10.312500)" fill="#FFFFFF" fill-opacity="0"/>
		<g clip-path="url(#clip3_1218)">
			<path d="M34.65 14.34C34.65 14.34 36.96 13.44 36.77 15.63C36.7 16.53 36.13 19.69 35.68 23.1L34.13 33.22C34.13 33.22 34.01 34.7 32.85 34.96C31.69 35.21 29.96 34.05 29.64 33.8C29.38 33.6 24.82 30.71 23.21 29.29C22.76 28.9 22.25 28.13 23.28 27.23L30.02 20.79C30.79 20.01 31.56 18.21 28.35 20.4L19.36 26.52C19.36 26.52 18.33 27.16 16.4 26.58L12.23 25.29C12.23 25.29 10.69 24.33 13.32 23.36C19.74 20.34 27.65 17.24 34.65 14.34Z" fill="#1B706C" fill-opacity="1.000000" fill-rule="nonzero"/>
		</g>
	</g>
	<rect rx="24.500000" width="49.000000" height="49.000000" transform="translate(0.500000 0.500000)" stroke="#1B706C" stroke-opacity="1.000000" stroke-width="1.000000"/>
</svg>
