<svg width="50.000000" height="50.000000" viewBox="0 0 50 50" fill="none" xmlns="http://www.w3.org/2000/svg" xmlns:xlink="http://www.w3.org/1999/xlink">
	<desc>
			Created with Pixso.
	</desc>
	<defs>
		<clipPath id="clip3_1214">
			<rect rx="-0.595238" width="27.380953" height="27.380953" transform="translate(11.310081 11.309105)" fill="white" fill-opacity="0"/>
		</clipPath>
		<clipPath id="clip3_1213">
			<rect rx="24.500000" width="49.000000" height="49.000000" transform="translate(0.500000 0.500000)" fill="white" fill-opacity="0"/>
		</clipPath>
	</defs>
	<rect rx="24.500000" width="49.000000" height="49.000000" transform="translate(0.500000 0.500000)" fill="#E4E4E4" fill-opacity="1.000000"/>
	<g clip-path="url(#clip3_1213)">
		<rect rx="-0.595238" width="27.380953" height="27.380953" transform="translate(11.310081 11.309105)" fill="#FFFFFF" fill-opacity="0"/>
		<g clip-path="url(#clip3_1214)">
			<path d="M37.45 17.85C36.53 18.27 35.54 18.54 34.52 18.67C35.57 18.04 36.38 17.04 36.76 15.84C35.77 16.44 34.67 16.85 33.52 17.09C32.58 16.07 31.26 15.47 29.76 15.47C26.96 15.47 24.67 17.76 24.67 20.58C24.67 20.98 24.72 21.38 24.8 21.75C20.57 21.53 16.79 19.5 14.28 16.41C13.84 17.16 13.59 18.04 13.59 18.97C13.59 20.75 14.48 22.32 15.86 23.21C15.02 23.21 14.23 22.97 13.54 22.61L13.54 22.65C13.54 25.13 15.3 27.2 17.64 27.66C16.89 27.87 16.1 27.9 15.34 27.75C15.66 28.76 16.3 29.65 17.15 30.28C18 30.92 19.04 31.27 20.1 31.29C18.3 32.72 16.06 33.49 13.76 33.48C13.35 33.48 12.95 33.46 12.54 33.41C14.8 34.86 17.49 35.71 20.38 35.71C29.76 35.71 34.91 27.92 34.91 21.17C34.91 20.95 34.91 20.73 34.9 20.51C35.9 19.79 36.76 18.89 37.45 17.85Z" fill="#1B706C" fill-opacity="1.000000" fill-rule="nonzero"/>
		</g>
	</g>
	<rect rx="24.500000" width="49.000000" height="49.000000" transform="translate(0.500000 0.500000)" stroke="#1B706C" stroke-opacity="1.000000" stroke-width="1.000000"/>
</svg>
